# xmcd
#
# Track frame offsets:
#	150
#	19498
#	46250
#	69319
#	100134
#	122809
#	145605
#	173594
#	192935
#	215473
#
# Disc length: 3231 seconds
# Revision: 0
# Processed by: cddbd v1.5.2PL0 Copyright (c) Steve Scherf et al.
# Submitted via: dBpowerAMP V12.0
#
DISCID=870c9d0a
DTITLE=Tommy Z - Sometimes 
DYEAR=2012
DGENRE=Blues
TTITLE0=Roger That 
TTITLE1=200lbs of Joy 
TTITLE2=Gangster of Love
TTITLE3=Old Love
TTITLE4=Snooty Funk
TTITLE5=Livin' In A Blue State
TTITLE6=So Tired of Being Lonely 
TTITLE7=I Got Your Back
TTITLE8=Sometimes
TTITLE9=Tommy'z Boogie
EXTD=
EXTT0=
EXTT1=
EXTT2=
EXTT3=
EXTT4=
EXTT5=
EXTT6=
EXTT7=
EXTT8=
EXTT9=
PLAYORDER=
